<?xml version="1.0" encoding="utf-8"?>
<!-- Generator: Adobe Illustrator 24.1.3, SVG Export Plug-In . SVG Version: 6.00 Build 0)  -->
<svg version="1.1" id="Layer_1" xmlns="http://www.w3.org/2000/svg" xmlns:xlink="http://www.w3.org/1999/xlink" x="0px" y="0px"
	 viewBox="0 0 79.97 111.9" style="enable-background:new 0 0 79.97 111.9;" xml:space="preserve">
<style type="text/css">
	.st0{fill:none;stroke:#000000;stroke-width:1.5;stroke-linecap:round;stroke-miterlimit:10;}
	.st1{fill:none;stroke:#000000;stroke-width:1.5;stroke-miterlimit:10;}
</style>
<path class="st0" d="M24.8,49.65c1.77-7.76-1.12-20.4-1.8-23.28c-1.11-4.67-1.56-16.5-2.24-21.25c3.2,5.68,5.66,10.88,12.97,19.15
	c9.51,9.7,10.7,12.96,20.06,13.71c3.12,0.25,8.87,1.04,9.53,3.93c0.55,2.44-2.34,4.21-4.56,4.07"/>
<path class="st0" d="M62.45,44.56c10.39,1.65,16.06,3.72,16.49,5.65c0.28,1.22-1.63,2.56-4.58,2.26"/>
<path class="st0" d="M67.53,49.27c-1.61,4.2-3.01,6.06-1.45,10.57c0.92,2.67-2.45,4.5-3.85,2.79c-1.77-2.16,0.31-7.11,1.23-14.36"/>
<path class="st0" d="M70.41,59.18c4.28-5.13,4.99-8.39,2.89-9.2C71.46,49.27,68.39,51.64,70.41,59.18z"/>
<path class="st1" d="M0.54,63.28c2.41-1.54,7.14-4.58,9.93-6.13c9.24-5.13,12.28-8.73,14.99-7.24c2.59,1.43,4.23,2.45,6.95,0.01
	c4.19-3.75-3-12.59-4.41-23.61c5.21,5.38,10.98,11.24,16.19,16.63"/>
<path class="st0" d="M48.01,36.88c-2.04,5.86-4.91,5.99-6.47,9.63c-1.92,4.48-0.82,10.78-7.49,12.49c-2.29,0.59-4.96,2.92-2.07,4.35
	c6.86,3.4,7.92-2.71,15.86-12.41"/>
<path class="st0" d="M58.75,45.98c-3.88-4.77-10.6-0.04-11.31,2.15c-0.68,2.12,1.09,4.48,3.52,5.05
	C53.61,53.79,56.42,49.4,58.75,45.98z"/>
<path class="st0" d="M69.81,53.56c-1.44,0.16-3.07,0.58-4.26,1.21"/>
<path class="st0" d="M62.27,55.07c-4.44,0.8-7.79,3.57-15.76,6.59c-6.72,2.54-0.35,8.77-2.62,13.29c-2.34,4.67-3.36,6.22-4.45,9.87"
	/>
<path class="st0" d="M50.97,53.18c0.5,1.61,0.84,4.41,0.69,6.32"/>
<path class="st0" d="M49.27,60.55c3.75,9.17,3.23,14.51-2.39,24.7"/>
<path class="st0" d="M36.37,91.25c1.22,4.94,2.76,12.23,3.12,17.46c3.32-5.41,5.55-11.18,6.44-16.4"/>
<path class="st0" d="M36.37,91.25c2.53-1.35,4.64-4.33,3.97-5.57c-0.84-1.56-4.32-2.05-5.58-0.09
	C33.9,86.95,34.68,89.07,36.37,91.25z"/>
<path class="st0" d="M45.93,92.32c-2.18-1.65-3.07-4.15-2.25-5.48c1.12-1.78,4.05-2.29,5.05-0.43
	C49.47,87.78,48.13,91.06,45.93,92.32z"/>
<g>
	<path class="st0" d="M50.88,76.2c8.46,2.13,3.76,4.8,7.62,6.54c3.11,1.41,5.12-1.4,5.59-3.25c0.23-0.89-0.21-2.49-1.53-4.23
		c-1.09,0.87-2.3,1.14-3.07,0.54c-1.24-0.97-1.14-2.3-0.33-3.71c-1.89-1.3-4.39-2.5-7.59-3.32"/>
	<path class="st0" d="M62.56,75.26c1.84-1.47,3.32-4.64,1.63-8.22c-1.99,1.48-4.04,3.33-5.03,5.06"/>
</g>
<path class="st1" d="M43.38,75.97c-10,2.64-16.65,10.66-20.68,18.63"/>
<path class="st0" d="M14.32,54.91c2.27,9.33,5.04,9.33,5.89,15.84c0.63,4.83,3.61,3.72,3.98,1.01c1.12-8.27-4.84-11.51,2.32-16.55"
	/>
<path class="st0" d="M7.07,59.14c3.31,9.21,1.88,12.75,2.4,17.03c1.14,9.26,3.58,9.1,4.75-0.09c0.61-4.8,1-10.82,2.26-14.76"/>
<path class="st0" d="M5.5,72.55c0.36-1.92,1.29-3.99,3.47-6.31"/>
<path d="M53.52,48.71c-0.77,0.6-1.84,0.69-2.06,0.23c-0.32-0.64,0.3-0.85,0.76-1.16c0.65-0.44,1.28-0.83,1.63-0.61
	C54.63,47.66,54.02,48.32,53.52,48.71z"/>
</svg>
